<?xml version="1.0" encoding="utf-8"?><svg width="810" height="810" viewBox="0 0 810 810" xmlns="http://www.w3.org/2000/svg" xmlns:xlink="http://www.w3.org/1999/xlink"><svg width="810" height="810" viewBox="-5 -5 34 34" fill="none" id="svg--cart" xmlns="http://www.w3.org/2000/svg"><g clip-path="url(#aa)"><path fill="#fff" d="M0 0h24v24H0z"/><path d="M5.333 6h14.534a1 1 0 0 1 .992 1.124l-.75 6a1 1 0 0 1-.992.876H8" stroke="#000" stroke-linejoin="round"/><path d="M2 4h2.234a1 1 0 0 1 .965.74l3.102 11.52a1 1 0 0 0 .965.74H19" stroke="#000" stroke-linecap="round" stroke-linejoin="round"/><circle cx="10" cy="20" r="1" stroke="#000" stroke-linejoin="round"/><circle cx="17.5" cy="20" r="1" stroke="#000" stroke-linejoin="round"/></g><defs><clipPath id="aa"><path fill="#fff" d="M0 0h24v24H0z"/></clipPath></defs></svg></svg>